<svg width="25" height="25" viewBox="0 0 25 25" fill="none" xmlns="http://www.w3.org/2000/svg">
<path d="M17.1875 7.91249L11.1375 14.075L8.03748 10.9625L6.375 12.625L11.2625 17.5L19.1125 9.88751L17.1875 7.91249Z" fill="#012B0C" fill-opacity="0.75"/>
<path d="M12.5 0C5.59646 0 0 5.59646 0 12.5C0 19.4035 5.59646 24.9999 12.5 24.9999C19.4035 24.9999 24.9999 19.4035 24.9999 12.5C24.9999 5.59646 19.4035 0 12.5 0ZM12.5 22.7375C6.84597 22.7375 2.26248 18.154 2.26248 12.5C2.26248 6.84597 6.84597 2.26248 12.5 2.26248C18.1511 2.26933 22.7305 6.84878 22.7375 12.5C22.7375 18.154 18.154 22.7375 12.5 22.7375Z" fill="#012B0C" fill-opacity="0.75"/>
</svg>
