<svg width="25" height="25" viewBox="0 0 25 25" fill="none" xmlns="http://www.w3.org/2000/svg">
<path d="M10.3526 14.6479C7.96644 12.2617 7.42764 9.87546 7.30609 8.91943C7.27213 8.65508 7.36309 8.38998 7.55221 8.20218L9.48325 6.27201C9.7673 5.98813 9.81771 5.54571 9.6048 5.2052L6.53023 0.431065C6.29468 0.0540168 5.81102 -0.0820636 5.41342 0.116841L0.477642 2.44141C0.156116 2.59973 -0.0330017 2.94135 0.00350404 3.29787C0.262125 5.75477 1.33325 11.7944 7.26859 17.7302C13.2039 23.666 19.2427 24.7367 21.7009 24.9953C22.0574 25.0318 22.3991 24.8427 22.5574 24.5211L24.882 19.5854C25.0801 19.1886 24.9449 18.7063 24.5695 18.4703L19.7953 15.3966C19.455 15.1834 19.0126 15.2335 18.7285 15.5173L16.7983 17.4483C16.6105 17.6374 16.3454 17.7284 16.0811 17.6944C15.1251 17.5729 12.7388 17.0341 10.3526 14.6479Z" fill="#012B0C" fill-opacity="0.75"/>
<path d="M19.8283 13.362C19.3522 13.362 18.9663 12.9761 18.9663 12.5C18.9622 8.93082 16.0699 6.03848 12.5007 6.03444C12.0246 6.03444 11.6387 5.64848 11.6387 5.17237C11.6387 4.69626 12.0246 4.3103 12.5007 4.3103C17.0217 4.31529 20.6854 7.979 20.6904 12.5C20.6904 12.9761 20.3044 13.362 19.8283 13.362Z" fill="#012B0C" fill-opacity="0.75"/>
<path d="M24.1387 13.3621C23.6626 13.3621 23.2766 12.9761 23.2766 12.5C23.27 6.55141 18.4493 1.73079 12.5007 1.72414C12.0246 1.72414 11.6387 1.33818 11.6387 0.862069C11.6387 0.385961 12.0246 0 12.5007 0C19.4012 0.00760167 24.9931 5.59959 25.0007 12.5C25.0007 12.7286 24.9099 12.9479 24.7482 13.1096C24.5866 13.2712 24.3673 13.3621 24.1387 13.3621Z" fill="#012B0C" fill-opacity="0.75"/>
</svg>
