<svg width="19" height="29" viewBox="0 0 19 29" fill="none" xmlns="http://www.w3.org/2000/svg">
<path d="M13.4994 9.175C13.4994 6.84188 11.6396 4.94373 9.35358 4.94373C7.06781 4.94373 5.20801 6.84188 5.20801 9.175C5.20801 11.5079 7.0676 13.4061 9.35358 13.4061C11.6396 13.4061 13.4994 11.5079 13.4994 9.175Z" fill="#012B0C" fill-opacity="0.75"/>
<path d="M9.35359 23.9767C9.99595 23.1226 13.7621 17.84 15.03 16.0751C16.538 13.9762 17.9291 11.8702 17.9291 9.17496C17.9291 4.34128 14.0896 0.422886 9.35359 0.422886L9.35252 0.422668C4.61628 0.422668 0.77832 4.34106 0.77832 9.17474C0.77832 11.87 2.16922 13.9762 3.67719 16.0751C4.94526 17.84 9.35359 23.9767 9.35359 23.9767ZM3.56739 9.17496C3.56739 5.9185 6.16312 3.26924 9.35359 3.26924C12.5443 3.26924 15.14 5.9185 15.14 9.17496C15.14 12.4312 12.5443 15.0805 9.35359 15.0805C6.16312 15.0805 3.56739 12.4312 3.56739 9.17496Z" fill="#012B0C" fill-opacity="0.75"/>
<path d="M12.5027 22.4252C12.3329 22.6619 9.32338 26.7665 9.32338 26.7665L6.20469 22.4252H2.4289L0 29H18.707L16.2779 22.4252H12.5027Z" fill="#012B0C" fill-opacity="0.75"/>
</svg>
