<svg width="20" height="20" viewBox="0 0 20 20" fill="none" xmlns="http://www.w3.org/2000/svg">
<path d="M14.6874 4.6875C15.0109 4.6875 15.2734 4.425 15.2734 4.10156V0.585938C15.2734 0.2625 15.0109 0 14.6874 0H11.1718C8.9101 0 7.07025 1.83984 7.07025 4.10156V7.03125H5.31244C4.989 7.03125 4.7265 7.29375 4.7265 7.61719V11.1328C4.7265 11.4563 4.989 11.7188 5.31244 11.7188H7.07025V19.4141C7.07025 19.7375 7.33275 20 7.65619 20H11.1718C11.4953 20 11.7578 19.7375 11.7578 19.4141V11.7188H14.1015C14.3878 11.7188 14.6324 11.5117 14.6796 11.2293L15.2656 7.71367C15.2937 7.54375 15.246 7.36992 15.1347 7.23828C15.0234 7.10703 14.8597 7.03125 14.6874 7.03125H11.7578V4.6875H14.6874ZM11.1718 8.20312H13.9956L13.605 10.5469H11.1718C10.8484 10.5469 10.5859 10.8094 10.5859 11.1328V18.8281H8.24213V11.1328C8.24213 10.8094 7.97963 10.5469 7.65619 10.5469H5.89838V8.20312H7.65619C7.97963 8.20312 8.24213 7.94063 8.24213 7.61719V4.10156C8.24213 2.48633 9.55658 1.17188 11.1718 1.17188H14.1015V3.51562H11.1718C10.8484 3.51562 10.5859 3.77813 10.5859 4.10156V7.61719C10.5859 7.94063 10.8484 8.20312 11.1718 8.20312Z" fill="#699074"/>
</svg>
