<svg width="20" height="20" viewBox="0 0 20 20" fill="none" xmlns="http://www.w3.org/2000/svg">
<path d="M17.0703 0H2.92969C1.31445 0 0 1.31445 0 2.92969V17.0703C0 18.6859 1.31445 20 2.92969 20H17.0703C18.6859 20 20 18.6859 20 17.0703V2.92969C20 1.31445 18.6859 0 17.0703 0ZM18.8281 17.0703C18.8281 18.0395 18.0395 18.8281 17.0703 18.8281H2.92969C1.96055 18.8281 1.17188 18.0395 1.17188 17.0703V2.92969C1.17188 1.96055 1.96055 1.17188 2.92969 1.17188H17.0703C18.0395 1.17188 18.8281 1.96055 18.8281 2.92969V17.0703Z" fill="#012B0C"/>
<path d="M16.4453 2.38281C15.7992 2.38281 15.2734 2.90859 15.2734 3.55469C15.2734 4.20078 15.7992 4.72656 16.4453 4.72656C17.0914 4.72656 17.6172 4.20078 17.6172 3.55469C17.6172 2.90859 17.0914 2.38281 16.4453 2.38281Z" fill="#012B0C"/>
<path d="M10 4.72656C7.09219 4.72656 4.72656 7.09219 4.72656 10C4.72656 12.9078 7.09219 15.2734 10 15.2734C12.9078 15.2734 15.2734 12.9078 15.2734 10C15.2734 7.09219 12.9078 4.72656 10 4.72656ZM10 14.1016C7.73828 14.1016 5.89844 12.2617 5.89844 10C5.89844 7.73828 7.73828 5.89844 10 5.89844C12.2617 5.89844 14.1016 7.73828 14.1016 10C14.1016 12.2617 12.2617 14.1016 10 14.1016Z" fill="#012B0C"/>
</svg>
