<svg width="44" height="34" viewBox="0 0 44 34" fill="none" xmlns="http://www.w3.org/2000/svg">
<path d="M37.5547 0.242188H6.44531C2.89094 0.242188 0 3.13398 0 6.6875V27.3125C0 30.866 2.89094 33.7578 6.44531 33.7578H37.5547C41.1091 33.7578 44 30.866 44 27.3125V6.6875C44 3.13398 41.1091 0.242188 37.5547 0.242188ZM41.4219 27.3125C41.4219 29.4446 39.6868 31.1797 37.5547 31.1797H6.44531C4.3132 31.1797 2.57812 29.4446 2.57812 27.3125V6.6875C2.57812 4.55539 4.3132 2.82031 6.44531 2.82031H37.5547C39.6868 2.82031 41.4219 4.55539 41.4219 6.6875V27.3125Z" fill="white"/>
<path d="M29.1569 15.8734L17.5553 9.42806C17.1566 9.20635 16.6693 9.21236 16.2757 9.44353C15.8821 9.67556 15.6406 10.0984 15.6406 10.5547V23.6602C15.6406 24.1199 15.8855 24.5453 16.2834 24.7756C16.6891 25.0103 17.1806 25.0025 17.5716 24.7782L29.1732 18.1181C29.5762 17.8869 29.8237 17.4555 29.8203 16.9906C29.8169 16.5256 29.5634 16.0985 29.1569 15.8734ZM18.2187 21.4335V12.7453L25.9102 17.0181L18.2187 21.4335Z" fill="white"/>
</svg>
