<svg width="53" height="53" viewBox="0 0 53 53" fill="none" xmlns="http://www.w3.org/2000/svg">
<g clip-path="url(#clip0)">
<path d="M51.704 51.273L36.845 35.82C40.635 32.019 42.983 26.779 42.983 21C42.983 9.42 33.563 0 21.983 0C10.403 0 0.983002 9.42 0.983002 21C0.983002 32.58 10.403 42 21.983 42C27.066 42 31.731 40.183 35.367 37.168L50.262 52.659C50.458 52.864 50.72 52.966 50.983 52.966C51.233 52.966 51.482 52.873 51.676 52.687C52.074 52.304 52.086 51.671 51.704 51.273ZM21.983 40C11.506 40 2.983 31.477 2.983 21C2.983 10.523 11.506 2 21.983 2C32.46 2 40.983 10.523 40.983 21C40.983 31.477 32.459 40 21.983 40Z" fill="white"/>
</g>
<defs>
<clipPath id="clip0">
<rect width="52.966" height="52.966" fill="white"/>
</clipPath>
</defs>
</svg>
