<svg width="20" height="20" viewBox="0 0 20 20" fill="none" xmlns="http://www.w3.org/2000/svg">
<g clip-path="url(#clip0)">
<path d="M19.8512 0.801367C19.6781 0.607619 19.4051 0.555666 19.1789 0.654493L0.350925 8.89662C0.142332 8.98802 0.0052241 9.19232 0.000146014 9.42044C-0.00493207 9.64817 0.122801 9.85833 0.327487 9.95911L4.82316 12.17L5.94346 18.8911C5.97979 19.1461 6.18018 19.3512 6.44111 19.3883C6.62861 19.4153 6.81494 19.3493 6.94384 19.2165L10.493 15.6673L15.5578 19.2852C15.7203 19.4008 15.9297 19.4262 16.1141 19.3532C16.2988 19.2801 16.434 19.118 16.4731 18.9231L19.9887 1.30605C20.0234 1.13144 19.9785 0.944335 19.8512 0.801367ZM5.28721 11.0923L1.97669 9.46419L15.0555 3.73884L5.28721 11.0923ZM7.12079 12.8341L6.57588 15.5587L5.98799 12.0314L13.1743 6.62163L7.28056 12.5353C7.19775 12.6181 7.14267 12.7259 7.12079 12.8341ZM7.47743 17.0255L8.09227 13.9524L9.52624 14.9766L7.47743 17.0255ZM15.5012 17.8044L8.59774 12.8735L18.4598 2.97869L15.5012 17.8044Z" fill="#699074"/>
</g>
<defs>
<clipPath id="clip0">
<rect width="20" height="20" fill="white"/>
</clipPath>
</defs>
</svg>
