<svg width="20" height="20" viewBox="0 0 20 20" fill="none" xmlns="http://www.w3.org/2000/svg">
<path d="M17.0703 2.38281H2.92969C1.31406 2.38281 0 3.69727 0 5.3125V14.6875C0 16.3027 1.31406 17.6172 2.92969 17.6172H17.0703C18.6859 17.6172 20 16.3027 20 14.6875V5.3125C20 3.69727 18.6859 2.38281 17.0703 2.38281ZM18.8281 14.6875C18.8281 15.6566 18.0395 16.4453 17.0703 16.4453H2.92969C1.96055 16.4453 1.17188 15.6566 1.17188 14.6875V5.3125C1.17188 4.34336 1.96055 3.55469 2.92969 3.55469H17.0703C18.0395 3.55469 18.8281 4.34336 18.8281 5.3125V14.6875Z" fill="#699074"/>
<path d="M13.2531 9.48779L7.97969 6.5581C7.79844 6.45732 7.57695 6.46005 7.39805 6.56513C7.21914 6.6706 7.10938 6.86279 7.10938 7.07021V13.0272C7.10938 13.2362 7.2207 13.4296 7.40156 13.5343C7.58594 13.6409 7.80937 13.6374 7.98711 13.5354L13.2605 10.5081C13.4437 10.403 13.5562 10.2069 13.5547 9.9956C13.5531 9.78427 13.4379 9.59013 13.2531 9.48779ZM8.28125 12.0151V8.06591L11.7773 10.0081L8.28125 12.0151Z" fill="#699074"/>
</svg>
